<svg xmlns="http://www.w3.org/2000/svg" viewBox="0 0 36 36" fill="none">
  <defs>
    <linearGradient id="meta-g" x1="0" y1="18" x2="36" y2="18" gradientUnits="userSpaceOnUse">
      <stop stop-color="#0064E0"/>
      <stop offset="0.4" stop-color="#0064E0"/>
      <stop offset="0.83" stop-color="#0073FF"/>
      <stop offset="1" stop-color="#0082FB"/>
    </linearGradient>
  </defs>
  <path d="M18 10.64c-1.6 1.67-3 3.74-4.37 5.94l-.73 1.27-1.8 3c-1.24 2.1-2.14 3.42-3.27 4.93-1.4 1.84-2.5 2.65-3.83 2.65-.88 0-1.55-.4-2.02-1.2-.52-.9-.84-2.22-.84-3.98 0-2.77.55-6.23 1.44-9.28.78-2.66 1.84-4.86 3.06-6.22 1.03-1.15 2.14-1.7 3.28-1.7 1.47 0 2.8 1.15 4.13 3.07l.59.85-2 2.98c-.44-.77-.88-1.36-1.36-1.77-.59-.52-1.18-.74-1.81-.74-.88 0-1.81.7-2.62 2.07-.88 1.47-1.69 3.64-2.25 6.11-.7 2.98-1.07 5.97-1.07 8.33 0 1.58.37 2.77.92 3.4.62.7 1.47 1 2.4 1 1.29 0 2.4-.62 3.9-2.69 1.22-1.66 2.66-4.02 3.61-5.45l1.62-2.43c1.14-1.7 2.47-3.69 3.98-5.23 1.25-1.26 2.62-2.18 4.09-2.18 2.62 0 5.09 2.18 6.89 5.78 1.95 3.83 2.91 8.74 2.91 13.49 0 2.77-.52 4.8-1.55 6.31-1 1.47-2.58 2.4-4.76 2.73v-2.22c2.91-.37 4.5-2.23 4.5-6.82 0-5.09-1.07-10.22-3.22-14.42-2.07-4.1-5.02-6.71-8.33-6.71-1.84 0-3.39.84-4.84 2.21z" fill="url(#meta-g)"/>
  <path d="M30.69 28.8c1.25-1.62 2.07-3.8 2.36-6.27h-2.21c-.3 2.1-1 3.83-2 5.12-1.03 1.32-2.36 2-3.91 2-1.66 0-3.28-.96-4.91-3.02-1.25-1.58-2.62-3.83-4.02-6.45l-.4-.74c-1.25-2.32-2.47-4.28-3.8-5.86-1.1-1.33-2.32-2.03-3.72-2.03-2.29 0-4.35 1.44-5.9 4.02-1.66 2.77-2.58 5.45-2.58 9.24 0 2 .37 3.61 1.14 4.76.74 1.1 1.81 1.7 3.13 1.77v-1.25c-1-.07-1.73-.55-2.29-1.33-.62-.92-1-2.21-1-3.98 0-2.32.62-4.87 1.73-6.67.85-1.44 1.88-2.14 2.84-2.14" fill="#0099FF"/>
</svg>
